HIERARCHY
ROOT Hips
{
	OFFSET -14.64140 90.27770 -84.91600
	CHANNELS 6 Xposition Yposition Zposition Zrotation Xrotation Yrotation
	JOINT Spine
	{
		OFFSET 0.00000 13.20850 -1.60436
		CHANNELS 3 Zrotation Xrotation Yrotation
		JOINT Spine1
		{
			OFFSET 0.00000 8.61716 0.00000
			CHANNELS 3 Zrotation Xrotation Yrotation
			JOINT Spine2
			{
				OFFSET 0.00000 8.61717 0.00000
				CHANNELS 3 Zrotation Xrotation Yrotation
				JOINT Spine3
				{
					OFFSET 0.00000 8.61717 0.00000
					CHANNELS 3 Zrotation Xrotation Yrotation
					JOINT Neck
					{
						OFFSET 0.00000 11.07920 1.10792
						CHANNELS 3 Zrotation Xrotation Yrotation
						JOINT Neck1
						{
							OFFSET 0.00000 7.08032 0.00000
							CHANNELS 3 Zrotation Xrotation Yrotation
							JOINT Head
							{
								OFFSET 0.00000 7.08031 0.00000
								CHANNELS 3 Zrotation Xrotation Yrotation
								End site
								{
									OFFSET 0.00000 0.00000 0.00000
								}
							}
						}
					}
					JOINT RightShoulder
					{
						OFFSET -0.01000 7.91373 5.19711
						CHANNELS 3 Zrotation Xrotation Yrotation
						JOINT RightArm
						{
							OFFSET -18.41580 0.00000 0.00000
							CHANNELS 3 Zrotation Xrotation Yrotation
							JOINT RightForeArm
							{
								OFFSET -29.11090 0.00000 0.00000
								CHANNELS 3 Zrotation Xrotation Yrotation
								JOINT RightHand
								{
									OFFSET -24.65040 0.00000 0.00000
									CHANNELS 3 Zrotation Xrotation Yrotation
									JOINT RightHandThumb1
									{
										OFFSET -5.35114 -0.85590 3.97906
										CHANNELS 3 Zrotation Xrotation Yrotation
										JOINT RightHandThumb2
										{
											OFFSET -4.52789 0.00000 0.00000
											CHANNELS 3 Zrotation Xrotation Yrotation
											JOINT RightHandThumb3
											{
												OFFSET -2.46976 0.00000 0.00000
												CHANNELS 3 Zrotation Xrotation Yrotation
												End site
												{
													OFFSET 0.00000 0.00000 0.00000
												}
											}
										}
									}
									JOINT RightHandIndex1
									{
										OFFSET -14.26970 0.00000 2.88139
										CHANNELS 3 Zrotation Xrotation Yrotation
										JOINT RightHandIndex2
										{
											OFFSET -5.48836 0.00000 0.00000
											CHANNELS 3 Zrotation Xrotation Yrotation
											JOINT RightHandIndex3
											{
												OFFSET -3.01859 0.00000 0.00000
												CHANNELS 3 Zrotation Xrotation Yrotation
												End site
												{
													OFFSET 0.00000 0.00000 0.00000
												}
											}
										}
									}
									JOINT RightHandMiddle1
									{
										OFFSET -14.26970 0.00000 -0.09147
										CHANNELS 3 Zrotation Xrotation Yrotation
										JOINT RightHandMiddle2
										{
											OFFSET -6.17441 0.00000 0.00000
											CHANNELS 3 Zrotation Xrotation Yrotation
											JOINT RightHandMiddle3
											{
												OFFSET -3.56743 0.00000 0.00000
												CHANNELS 3 Zrotation Xrotation Yrotation
												End site
												{
													OFFSET 0.00000 0.00000 0.00000
												}
											}
										}
									}
									JOINT RightHandRing1
									{
										OFFSET -12.69180 0.00000 -3.06433
										CHANNELS 3 Zrotation Xrotation Yrotation
										JOINT RightHandRing2
										{
											OFFSET -5.62556 0.00000 0.00000
											CHANNELS 3 Zrotation Xrotation Yrotation
											JOINT RightHandRing3
											{
												OFFSET -3.56744 0.00000 0.00000
												CHANNELS 3 Zrotation Xrotation Yrotation
												End site
												{
													OFFSET 0.00000 0.00000 0.00000
												}
											}
										}
									}
									JOINT RightHandPinky1
									{
										OFFSET -11.11390 0.00000 -6.03719
										CHANNELS 3 Zrotation Xrotation Yrotation
										JOINT RightHandPinky2
										{
											OFFSET -4.52789 0.00000 0.00000
											CHANNELS 3 Zrotation Xrotation Yrotation
											JOINT RightHandPinky3
											{
												OFFSET -2.46976 0.00000 0.00000
												CHANNELS 3 Zrotation Xrotation Yrotation
												End site
												{
													OFFSET 0.00000 0.00000 0.00000
												}
											}
										}
									}
								}
							}
						}
					}
					JOINT LeftShoulder
					{
						OFFSET 0.01000 7.91373 5.19711
						CHANNELS 3 Zrotation Xrotation Yrotation
						JOINT LeftArm
						{
							OFFSET 18.41580 0.00000 0.00000
							CHANNELS 3 Zrotation Xrotation Yrotation
							JOINT LeftForeArm
							{
								OFFSET 29.11090 0.00000 0.00000
								CHANNELS 3 Zrotation Xrotation Yrotation
								JOINT LeftHand
								{
									OFFSET 24.65040 0.00000 0.00000
									CHANNELS 3 Zrotation Xrotation Yrotation
									JOINT LeftHandThumb1
									{
										OFFSET 5.35114 -0.85590 3.97906
										CHANNELS 3 Zrotation Xrotation Yrotation
										JOINT LeftHandThumb2
										{
											OFFSET 4.52789 0.00000 0.00000
											CHANNELS 3 Zrotation Xrotation Yrotation
											JOINT LeftHandThumb3
											{
												OFFSET 2.46977 0.00000 0.00000
												CHANNELS 3 Zrotation Xrotation Yrotation
												End site
												{
													OFFSET 0.00000 0.00000 0.00000
												}
											}
										}
									}
									JOINT LeftHandIndex1
									{
										OFFSET 14.26970 0.00000 2.88139
										CHANNELS 3 Zrotation Xrotation Yrotation
										JOINT LeftHandIndex2
										{
											OFFSET 5.48836 0.00000 0.00000
											CHANNELS 3 Zrotation Xrotation Yrotation
											JOINT LeftHandIndex3
											{
												OFFSET 3.01859 0.00000 0.00000
												CHANNELS 3 Zrotation Xrotation Yrotation
												End site
												{
													OFFSET 0.00000 0.00000 0.00000
												}
											}
										}
									}
									JOINT LeftHandMiddle1
									{
										OFFSET 14.26970 0.00000 -0.09147
										CHANNELS 3 Zrotation Xrotation Yrotation
										JOINT LeftHandMiddle2
										{
											OFFSET 6.17440 0.00000 0.00000
											CHANNELS 3 Zrotation Xrotation Yrotation
											JOINT LeftHandMiddle3
											{
												OFFSET 3.56744 0.00000 0.00000
												CHANNELS 3 Zrotation Xrotation Yrotation
												End site
												{
													OFFSET 0.00000 0.00000 0.00000
												}
											}
										}
									}
									JOINT LeftHandRing1
									{
										OFFSET 12.69180 0.00000 -3.06433
										CHANNELS 3 Zrotation Xrotation Yrotation
										JOINT LeftHandRing2
										{
											OFFSET 5.62556 0.00000 0.00000
											CHANNELS 3 Zrotation Xrotation Yrotation
											JOINT LeftHandRing3
											{
												OFFSET 3.56744 0.00000 0.00000
												CHANNELS 3 Zrotation Xrotation Yrotation
												End site
												{
													OFFSET 0.00000 0.00000 0.00000
												}
											}
										}
									}
									JOINT LeftHandPinky1
									{
										OFFSET 11.11390 0.00000 -6.03719
										CHANNELS 3 Zrotation Xrotation Yrotation
										JOINT LeftHandPinky2
										{
											OFFSET 4.52789 0.00000 0.00000
											CHANNELS 3 Zrotation Xrotation Yrotation
											JOINT LeftHandPinky3
											{
												OFFSET 2.46976 0.00000 0.00000
												CHANNELS 3 Zrotation Xrotation Yrotation
												End site
												{
													OFFSET 0.00000 0.00000 0.00000
												}
											}
										}
									}
								}
							}
						}
					}
					JOINT pCube4
					{
						OFFSET 0.00000 10.91090 1.10792
						CHANNELS 3 Zrotation Xrotation Yrotation
						End site
						{
							OFFSET 0.00000 0.00000 0.00000
						}
					}
				}
			}
		}
	}
	JOINT RightUpLeg
	{
		OFFSET -9.98441 0.00000 0.00000
		CHANNELS 3 Zrotation Xrotation Yrotation
		JOINT RightLeg
		{
			OFFSET 0.00000 -42.11790 0.00000
			CHANNELS 3 Zrotation Xrotation Yrotation
			JOINT RightFoot
			{
				OFFSET 0.00000 -45.00020 -0.00001
				CHANNELS 3 Zrotation Xrotation Yrotation
				JOINT RightForeFoot
				{
					OFFSET 0.00000 -3.74820 0.00000
					CHANNELS 3 Zrotation Xrotation Yrotation
					JOINT RightToeBase
					{
						OFFSET 0.00000 0.06325 14.43120
						CHANNELS 3 Zrotation Xrotation Yrotation
						End site
						{
							OFFSET 0.00000 0.00000 0.00000
						}
					}
				}
			}
		}
	}
	JOINT LeftUpLeg
	{
		OFFSET 9.98441 0.00000 0.00000
		CHANNELS 3 Zrotation Xrotation Yrotation
		JOINT LeftLeg
		{
			OFFSET 0.00000 -42.11800 0.00000
			CHANNELS 3 Zrotation Xrotation Yrotation
			JOINT LeftFoot
			{
				OFFSET 0.00000 -45.00070 0.00000
				CHANNELS 3 Zrotation Xrotation Yrotation
				JOINT LeftForeFoot
				{
					OFFSET 0.00000 -3.74824 0.00000
					CHANNELS 3 Zrotation Xrotation Yrotation
					JOINT LeftToeBase
					{
						OFFSET 0.00000 0.06325 14.43110
						CHANNELS 3 Zrotation Xrotation Yrotation
						End site
						{
							OFFSET 0.00000 0.00000 0.00000
						}
					}
				}
			}
		}
	}
}
MOTION
Frames: 4
Frame Time: 0.050000
0.0097419274041594 0.0162058631933237 -0.01610713715652928 0.03192595679160089 0.01693692388920269 -0.046085484753044206 -1.349436429425619 0.7741506988629759 -1.0089505016474756 -0.9570107010497598 3.888626682497241 0.3445029955250335 -1.2324613776603486 -1.7637929947160844 -0.7782542082190852 0.9768385522587371 0.4791437598230174 -0.7826565241899772 0.8083620741062602 12.463911154625837 -2.5927751674223694 0.010060888685949367 -0.6941491718435898 -8.002875202412325 0.9261912617000948 -16.193598845381747 -0.6116933085155292 -4.652264376350966 1.4901963935088047 -15.65891739718849 72.83714958404707 23.014133167900965 3.6294048731352055 2.30325760943654 2.0471037944392974 41.407876449097664 21.12854943506733 -0.058556822191672006 -3.8932429671343876 4.548600199409964 -0.11490635725405708 -1.5846042871916002 -0.02845720377280326 0.04344643764802464 -56.21824069761416 -0.02155402375075722 0.016842655494640434 -56.21756296410461 -38.7526231559924 0.014672403873692556 -0.04472696163304218 0.01269095181799031 0.03550146568683106 0.02862877712288855 0.0062831571870394344 0.040772743918403506 0.02467488276489585 -36.6690782936705 -0.027983582206129693 0.03458329064389835 0.003801119252276796 -0.035442373728458626 -0.0036748387709520857 0.006681794958681737 -0.012796466276459716 0.014251905062007493 -19.777128272128657 0.01282755722684992 0.041049139643904525 0.0018255060804854854 0.030983126369864188 0.044924087922632826 0.04206396525708088 -0.0010881324181483039 0.040470884240504365 24.065775088969556 -0.01635703321618844 0.03273641256371889 28.81748653557355 -0.022384903221945914 0.012518218826203605 28.867783686392897 0.038926273532398255 0.021427251327464984 3.5746950491370697 0.9895894787660752 13.512275763680718 -71.8111773400651 26.453889898318604 -0.23647179483680028 -3.882655432146358 -8.711965073690344 -42.278475602069996 -14.194661902912971 -0.6615088036748098 2.9406757774452275 -0.5099467711091231 0.09131591425886146 -8.156695889119359 -0.016455835966151886 0.03698288448560389 44.6061017666706 0.026581262081007143 0.008930743720741994 44.531747239791855 12.492351254429247 0.006784223986182624 0.04480748852340004 0.006102804779345941 -0.01769567886770633 -0.011925756808056262 -0.03568828622411728 0.03829761318589255 -0.032048825718529836 11.127392023875402 0.04066613846964996 -0.006871606523471766 -0.01590343982080448 -0.031615558474586726 0.018303582851593225 -0.008247490719997008 -0.00688907498747637 0.044293778784983334 4.785458334916903 -0.03173949520387974 0.009066627624955586 0.02595597897611531 0.018511632016372914 -0.005722808019467002 0.033155593917031406 0.020973161839242385 -0.04093865806824781 -5.649072277395184 -0.045626599283172926 0.009576658609631375 -6.745770068480257 0.027807523698521956 -0.01422875407520266 -6.681947289321549 0.014761509972976426 -0.027539061937240372 0.009954147462450614 -0.0075390594704257165 0.007524125689413932 8.023925464207212 3.4637439409279955 -19.226529619157695 0.004302205192252868 10.440593220764026 -0.0352035352974899 -5.620158457785777 -15.649722737162296 3.2275218986250698 -0.011321325278389483 0.036243828247637805 0.014866584437831313 0.019589187365650924 4.702777031597808 -0.0005425719251131218 12.495982598393411 -8.285082298053062 6.900932097723126 -0.031248095640753253 46.36755287764213 0.04163270682183023 -4.304539659469809 -14.736598584927838 -3.8733255710228107 -0.03842334549008843 -0.013456831012466754 -0.0015829043188322564 -0.04988103857735079 -10.706947964870702 -0.035585106647873545 
-0.040513712324200146 -0.028225693994573732 0.019832001238803763 0.04397678448150231 -0.0009409293747850363 -0.032288703122898305 -1.204905103840457 0.8250717446934497 -1.0635702162289988 -0.920453114779049 3.9121979815659067 0.375959437449239 -1.2027965784708032 -1.747537482069136 -0.7826808656240006 1.0134794861151744 0.5548121330538611 -0.7556039068726764 0.8963165745407704 12.334322167281337 -2.8594439314157154 0.05862534016633825 -0.7496754081588897 -8.520948589539117 1.0573693884419335 -16.329892204839712 -0.6707063248902998 -4.653184487087405 1.4803702486826362 -15.80377369788082 73.06612135306653 22.63094449168804 3.4356677999279825 1.9910696165835255 1.9569333454737199 41.982999632552676 20.721701119304893 -0.1020753409435034 -3.8539111635145957 4.565078913630885 -0.1281691123577304 -1.638393338558682 0.04750263869727201 0.03962427845176286 -56.198040725011445 -0.0278831499690957 0.004625159210071335 -56.23677956598846 -38.72707483180237 -0.007686740096572331 0.03416401378974012 0.026894241321670426 0.011396268007583804 -0.04723587460912347 -0.03323007052125327 -0.0025788595021865148 0.03537887859181045 -36.65754399221533 0.019208973657800697 0.006830426218899954 0.006784305120023402 -0.02291920480554432 0.03432860163510518 0.004412767828671574 -0.01207360473360372 0.03253050830544914 -19.73663050751618 -0.029548433277600705 -0.04806463304700011 0.049075026483152935 -0.010106228492269928 0.026784558094618428 0.0006766860562937183 0.011274908269005374 -0.020132800942998286 24.04530087982813 0.008518798938540349 -0.017946527206025038 28.86710550041749 -0.04118390836726495 0.009168442747087531 28.910740424831868 0.01519008498433433 -0.012649599972726206 3.5307120916201873 0.9361314482319516 13.540846922064757 -71.99122200616472 26.8530814647129 -0.00570553712737604 -2.167869782030852 -8.981280238541686 -42.67109734323394 -14.001965749912475 -0.7909216313317633 3.1756577131719297 -0.4469466485669411 0.05885606929461082 -8.128634372878189 0.03249093772716638 -0.01241052410220058 44.604915737909806 -0.045702041861784316 -0.0017787882494360808 44.57896933175355 12.467081902554929 0.028766711627516393 -0.018604902551381464 0.005425910009503091 0.013144089971838186 -0.0017526445241131741 -0.04115397718707737 -0.006560040148812894 0.031451074587419 11.109396904961326 -0.04373363138527882 -0.003968202144177942 -0.020753212076216696 0.013057006159815487 -0.00907467859492091 -0.02314111225035277 -0.04825057528898266 0.04592676969144585 4.800723463303886 0.009603680011232074 0.02818015303364274 -0.029971459877850198 0.022305663442589524 -0.02211895630968508 0.010065304741539077 0.03822051806336045 -0.028288608168830297 -5.603484174935265 0.048685680756814266 0.024973801488343418 -6.740912960898338 -0.017022953357807125 -0.008762005800125728 -6.680767769756795 -0.015589808686267932 0.011902681693457913 0.029427203099962843 -0.03905954391843455 0.038374971347715156 8.07638686067428 3.5358427085445676 -19.214994227304036 0.0437757237963582 10.35593099598108 0.023184849712304674 -5.636021301114876 -15.70215838565441 3.166709855954456 -0.03365492930309818 0.022219066556472128 0.028869226083872213 -0.014574220444275018 4.693007748549243 0.032220305011606054 12.433531580789266 -8.217482269669237 6.922897411807724 -0.01769361184153963 46.3924164567267 0.04708594487639397 -4.372094946437764 -14.714227072810813 -3.786105670065791 0.01458344570743185 -0.013454194395681907 0.004737171843443763 0.04180666122643763 -10.770518303861635 -0.014852208386145227 
0.005970268075125913 -0.0016443796457790497 0.0159123751367019 -0.047668160267274134 -0.04506994651799782 -0.012842405442602746 -1.1427833537769236 0.8368906768463675 -1.0642647044698323 -0.8989984521881871 3.9255028756588755 0.3332732916162271 -1.1973379130112627 -1.6736779538170365 -0.807486495170689 1.064458951197395 0.4863106746656219 -0.7627390881752573 0.922365743406212 12.365644094130214 -3.0827352549475044 0.09185897405906356 -0.8779284053550983 -8.945827330239712 1.168444972329177 -16.519569907848634 -0.7435799363770316 -4.763545768050971 1.5897150987906876 -15.918638365978357 73.12692328034812 22.296236321398872 2.825129649055047 1.5186453705726297 1.8780821813099746 42.36224844745518 20.484948330711333 -0.1035506057402787 -3.825867298165793 4.502371825528219 -0.13264737784117944 -1.565471796125362 0.036827693725226915 0.03889953683848766 -56.256092533547346 0.007324181438602798 0.03933622280536686 -56.19495312778679 -38.795856955310676 -0.044521647864498345 -0.0018300727331426677 0.029860226410185185 -0.0033852578918622408 0.002012180103372438 -0.03155173209842455 -0.007533122706059327 0.015258822842856607 -36.73993525602474 -0.02539455684263042 -0.024837535409929917 0.02045313979372486 -0.027193910034106504 0.008819499469793853 0.029611468149027716 -0.03657675266420988 -0.018518150334348314 -19.773554214858464 -0.019328777196006678 -0.030225327915747054 -0.017409199318611863 -0.003781094301336164 0.044243584399828687 0.005911687827584133 0.0395271608025099 0.020805107064600408 24.100628330087986 -0.009140644495055847 -0.01856626611923599 28.89432231764646 -0.006519741191162632 -0.007614239883923974 28.849354834223433 0.01965280070502242 -0.037973714754844234 3.4967014099255747 0.997355756874378 13.545393448790279 -72.19755378533883 27.368933011923748 0.18733467462178718 -1.1891318498219812 -9.056358275453176 -42.8594142694754 -13.886412081928093 -0.7569503409943082 3.1980740445816367 -0.4770515904323718 0.03048102222104978 -8.084624108481423 -0.0007437380972582434 0.006391101462406315 44.55630905983607 0.022422835227806224 0.012857822238924635 44.55304046375454 12.446477673963171 -0.028983921815022965 -0.028689001543911737 -0.01550294157522561 -0.021168442615395505 0.02022198694033413 0.021848090140618018 0.031557964292793 0.028265699760131914 11.081735140766373 0.027254991972624803 0.014526977569659648 -0.03888115339743374 0.046306568016282315 -0.022545340672560282 8.089891616205683e-05 -0.021853709252901206 -0.01168431852974414 4.755365680042855 -0.030310514454724508 -0.016970861290505523 0.028642624942021643 -0.005234721674051373 0.0008128689341362573 0.02403456352878156 -0.008247620857548587 0.018623287364907603 -5.6054606864921475 -0.004757418787059035 0.032117474134019046 -6.7429639122826535 -0.029123265393917738 0.042142789247062336 -6.724886080913143 -0.03475546011656483 8.921581032049162e-05 -0.049586914195701486 -0.016293909254052236 -0.03471618146322904 8.093828651933014 3.510164728278325 -19.220218322831304 0.03910246338641078 10.365185956823671 0.03421421050167367 -5.6657762974200345 -15.696273995760233 3.143747491002089 -0.04139839438730939 0.008405643598733826 -0.017903250810602005 0.03747963036831977 4.684573949069355 0.00224318271306696 12.492935914406896 -8.243071302472181 6.861736549295051 0.036337391968803964 46.33359673574187 -0.011655928444809262 -4.374286323605464 -14.736761682506984 -3.7980723120508326 0.045054025400753414 0.015878141683907176 -0.0047788757411594465 0.011450475943670086 -10.723336222699812 0.029121026519202814 
-0.018633999448186084 0.004190380764411895 -0.048802104983119626 -0.003157564092639659 0.009239149374416588 0.03309185353369883 -1.1584453233161498 0.8467399149437493 -1.0613661825854512 -0.926169301248506 3.9148120271843005 0.34214980865433864 -1.2203714393364844 -1.6723014279609068 -0.8499484879712776 1.0850559882385764 0.4676299642869708 -0.7872514406505411 1.031405386585449 12.28233152900767 -3.1860905600695886 0.10241375015014795 -0.9702323950646221 -9.166258369883348 1.2098857551904303 -16.702221431810553 -0.7623652068985699 -4.932573566534276 1.6057124007178227 -16.07128526237942 72.9989853905282 22.030096917694717 2.0861846848018133 1.037095496540363 1.604887605189122 42.35477142363299 20.22510169786222 -0.052519696981692524 -3.8184988122481642 4.578383372601093 -0.10576471508901727 -1.6339877124103892 0.013598973599922636 0.04803768477410526 -56.238424985386416 -0.0459723796042841 -0.034618319555389465 -56.27894316877207 -38.812561047877324 0.002573246599328137 -0.0080551826719593 -0.04005306625174539 -0.02679128714590515 -0.013667003445163925 -0.012129951210267963 -0.04824094105005704 -0.0017140187953289033 -36.71546153978581 0.03424132989947756 0.04417442548368063 -0.027477352834506134 -0.0199572207243085 -0.04692906513269668 0.03946647268533704 -0.026243225354492788 0.030454217682301332 -19.770945698134955 -0.01709476495887837 -0.030400990944565467 -0.0056271320172222505 0.018341701013491484 0.015614743370665107 0.004647384921501669 -0.03592998727419426 0.03171033706329521 24.05166444080495 -0.012664081180656416 -0.004913119198196987 28.89186337284635 -0.03739685179833527 0.0023261226842001674 28.83693992505856 -0.024982731834104755 0.02471369798424194 3.5377524855162807 0.9756165109645109 13.596079539165869 -72.25991302773201 27.709886332203162 0.36711890861748103 -0.4450038579678024 -9.1293869103504 -42.65468627858735 -13.896518477428456 -0.7961454079060739 3.339547204381189 -0.4430526596694622 0.10097815284181903 -8.134808723823738 -0.009662674213654852 0.013569657666359763 44.54547426167852 -0.03295902070961599 -0.030622533774799322 44.52297228894316 12.484422147304175 -0.03591294684148758 0.011350524776532218 0.011895252528459606 -0.011652443028779404 0.026723274242106798 0.011749678102936699 0.021120730124988288 -0.018882868099414498 11.130457122724145 0.01474466138723161 0.0014328378122631267 -0.03080278194257657 0.010721542053370944 0.006837466273915745 -0.018236810613734077 -0.026883820569992396 0.01546215500992312 4.772315083276464 -0.02179147106302053 -0.016767685043591093 0.008616369094374613 0.026959180196521396 0.03583200571690651 -0.02787023798482992 -0.04311092375626458 0.01308384980833151 -5.640549042708402 -0.003144950672047729 -0.025359537936963168 -6.700911443980054 -0.04497313671134413 0.049280902527397884 -6.707607510209906 -0.013103472720836305 0.02468120085857499 0.0005099724862491651 0.03154736560583162 0.023545514305613396 8.064230214550992 3.501135034392258 -19.19977407139018 0.03979917497790463 10.383103553637891 0.02911428680087634 -5.666266851717878 -15.654391172149928 3.2277308967620937 -0.013293695550899851 0.027722039271274854 0.004053155888371052 0.029223935301073898 4.683750823995895 -0.015375663468691958 12.44633839732732 -8.221953009473074 6.850244982972969 0.0057679664033348736 46.38902124212316 -0.00027064930704088553 -4.374020116168971 -14.71190986593692 -3.841882070834732 -0.04228358728198758 0.04029250935560937 0.015787173526557927 0.011015676931875525 -10.755604623179314 0.005371392744667233 
